<svg width="156" height="162" viewBox="0 0 156 162" fill="none" xmlns="http://www.w3.org/2000/svg">
<path fill-rule="evenodd" clip-rule="evenodd" d="M111.851 71.0865C111.653 70.8225 111.394 70.3234 111.047 69.6557C110.986 69.5375 110.922 69.4132 110.855 69.2834C108.435 64.5913 102.243 52.5865 85.3505 52.5865C72.3505 52.5865 59.3505 64.0865 57.3505 72.5865C54.4795 84.7881 57.2266 95.5552 66.8505 103.586C72.6413 108.419 77.8095 109.951 85.3505 110.086C93.2568 110.228 98.2311 108.095 104.351 103.086C106.345 101.454 107.52 99.7574 108.702 98.0503C109.619 96.7265 110.54 95.3967 111.851 94.0865C117.242 88.6946 123.049 88.2661 130.851 89.5865C139.75 91.0928 145.73 94.8177 149.351 103.086C153.82 113.295 149.351 121.814 144.851 129.586C140.351 137.359 131.27 144.585 126.5 147.5C122.234 150.107 114.212 154.05 113.518 154.338C107.591 156.791 98.8007 159.671 86.8505 160.087C74.1437 160.529 65.2135 159.671 53.3505 154.587C42.1466 149.785 36.8505 146.087 27.3505 136.587C18.8729 128.109 14.4762 121.343 10.3505 110.086C5.33307 96.3962 4.35054 87.5865 5.35052 73.0865C6.16204 61.3192 8.289 54.4882 13.8505 44.0865C19.3746 33.7548 23.9676 27.546 32.8505 20.0865C41.444 12.87 47.2545 9.6982 57 6C67.8956 1.86537 75.2047 1.65718 86.8505 2.08648C97.5 2.47904 111.047 7 111.047 7C111.047 7 126.337 13.6317 134 20C134.638 20.5303 135.256 21.039 135.854 21.5318C142.212 26.7665 146.384 30.202 149.351 38.5C151.54 44.6242 151.64 50.2573 150.851 55.0865C150.061 59.9156 148.351 62.0865 144.851 66.0865C141.351 70.0865 136.351 74.0865 127.851 74.5865C119.351 75.0865 113.35 73.0865 111.851 71.0865Z" fill="#615FFF"/>
<path d="M111.415 105.87C106.293 111.972 96.0664 120.159 91.2902 118.972C88.5582 118.456 105.621 135.563 121.29 134.472C126.034 134.141 130.377 133.173 134.29 130.472C138.758 127.388 140.123 124.774 141.29 119.472C142.962 111.88 139.451 104.979 132.79 100.972C128.186 98.2018 124.058 98.7971 119.374 100.051C116.183 100.905 113.539 103.34 111.415 105.87Z" fill="#FFFFF2"/>
<path d="M111.415 57.6519C106.293 51.5495 96.0664 43.3625 91.2902 44.5501C88.5582 45.066 105.621 27.959 121.29 29.0501C126.034 29.3804 130.377 30.349 134.29 33.0501C138.758 36.134 140.123 38.7482 141.29 44.0501C142.962 51.642 139.451 58.5426 132.79 62.5501C128.186 65.32 124.058 64.7247 119.374 63.4706C116.183 62.6165 113.539 60.1816 111.415 57.6519Z" fill="#ED6A78"/>
</svg>
